<svg xmlns="http://www.w3.org/2000/svg" viewBox="0 0 2391.4 1400.0" role="img" aria-label="PA">
  <g transform="translate(-68.4 1400.0) scale(1 -1)" fill="#1F4D3F">
    <path d="M1219.592529296875 872.4013671875Q1219.592529296875 737.0013427734375 1157.1927490234375 637.1012573242188Q1094.79296875 537.201171875 984.193359375 482.60107421875Q873.59375 428.0009765625 728.794189453125 428.0009765625Q618.795654296875 428.0009765625 537.6954956054688 452.80078125Q456.5953369140625 477.6005859375 389.195068359375 527.8006591796875L393.195068359375 542.000244140625Q439.195068359375 510.000244140625 481.49554443359375 491.10028076171875Q523.7960205078125 472.2003173828125 564.3965454101562 464.30035400390625Q604.9970703125 456.400390625 644.197265625 456.400390625Q729.598876953125 456.400390625 797.5997314453125 506.00079345703125Q865.6005859375 555.6011962890625 905.8009033203125 650.00146484375Q946.001220703125 744.4017333984375 946.001220703125 878.2012939453125Q946.001220703125 1039.6007080078125 896.2005615234375 1151.9005126953125Q846.39990234375 1264.2003173828125 760.1985473632812 1322.9003295898438Q673.9971923828125 1381.600341796875 565.195068359375 1381.600341796875H479.9921875V54.9996337890625Q479.9921875 43.3997802734375 488.89202880859375 36.99981689453125Q497.7918701171875 30.599853515625 515.9915771484375 26.7999267578125L601.9931640625 13.3997802734375Q606.7930908203125 12.3997802734375 609.1930541992188 10.99981689453125Q611.593017578125 9.599853515625 611.593017578125 6.39990234375Q611.593017578125 3.7999267578125 609.4930419921875 1.89996337890625Q607.39306640625 0 602.5931396484375 0H78.4002685546875Q73.600341796875 0 71.0003662109375 1.89996337890625Q68.400390625 3.7999267578125 68.400390625 6.9998779296875Q68.400390625 11.7998046875 79.2001953125 13.999755859375L165.4017333984375 27.39990234375Q183.4014892578125 30.599853515625 191.70135498046875 37.2998046875Q200.001220703125 43.999755859375 200.001220703125 53.5997314453125V1342.200439453125Q200.001220703125 1354.2003173828125 191.9013671875 1362.000244140625Q183.801513671875 1369.8001708984375 167.2017822265625 1372.60009765625L77.000244140625 1386.6002197265625Q68.400390625 1387.8001708984375 68.400390625 1393.0001220703125Q68.400390625 1396.800048828125 70.70037841796875 1398.4000244140625Q73.0003662109375 1400 77.80029296875 1400H565.195068359375Q760.1942138671875 1400 907.49365234375 1334.2001953125Q1054.7930908203125 1268.400390625 1137.1928100585938 1149.6007080078125Q1219.592529296875 1030.801025390625 1219.592529296875 872.4013671875Z"/>
    <path d="M268.8001708984375 539.2001953125H778.0018310546875L781.2017822265625 520.00048828125H263.6002197265625ZM322.99658203125 6.39990234375Q322.99658203125 4.199951171875 321.09661865234375 2.0999755859375Q319.1966552734375 0 315.396728515625 0H-3.79931640625Q-7.19921875 0 -9.2991943359375 2.0999755859375Q-11.399169921875 4.199951171875 -11.399169921875 6.39990234375Q-11.399169921875 10.1998291015625 -8.39923095703125 11.7998046875Q-5.3992919921875 13.3997802734375 -2.599365234375 13.999755859375L35.001708984375 25.4000244140625Q67.0010986328125 36.3997802734375 99.50030517578125 71.19891357421875Q131.99951171875 105.998046875 153.5992431640625 179.197021484375L477.2017822265625 1279.4034423828125Q488.801513671875 1318.40234375 477.5015869140625 1342.001708984375Q466.20166015625 1365.60107421875 435.6014404296875 1378.800537109375Q424.4017333984375 1386.6002197265625 418.8018798828125 1388.7001953125Q413.2020263671875 1390.8001708984375 413.2020263671875 1393.60009765625Q413.2020263671875 1397.4000244140625 415.60198974609375 1398.7000122070312Q418.001953125 1400 422.8018798828125 1400H811.5928955078125Q815.9927978515625 1400 818.1927490234375 1398.7000122070312Q820.3927001953125 1397.4000244140625 820.3927001953125 1393.60009765625Q820.3927001953125 1390.8001708984375 815.5928344726562 1387.8002319335938Q810.79296875 1384.80029296875 798.7933349609375 1380.00048828125Q774.99267578125 1376.400634765625 769.8926391601562 1366.7008056640625Q764.7926025390625 1357.0009765625 773.1925048828125 1330.4013671875L1175.9935302734375 66.399658203125Q1183.7935791015625 42.99951171875 1199.09375 30.8995361328125Q1214.3939208984375 18.799560546875 1237.5943603515625 15.7996826171875Q1243.794189453125 13.999755859375 1246.2941284179688 12.09979248046875Q1248.7940673828125 10.1998291015625 1248.7940673828125 6.39990234375Q1248.7940673828125 4.199951171875 1246.5941162109375 2.0999755859375Q1244.3941650390625 0 1239.9942626953125 0H798.8023681640625Q794.802490234375 0 792.4025268554688 2.0999755859375Q790.0025634765625 4.199951171875 790.0025634765625 6.39990234375Q790.0025634765625 10.1998291015625 793.1025390625 11.1998291015625Q796.2025146484375 12.1998291015625 802.0023193359375 13.999755859375L849.6031494140625 21.599609375Q874.202880859375 27.7994384765625 880.0029296875 41.09942626953125Q885.802978515625 54.3994140625 878.0030517578125 78.799072265625L492.8013916015625 1294.803466796875L516.8009033203125 1347.201416015625L172.198974609375 175.59716796875Q160.1990966796875 134.9976806640625 171.59869384765625 104.898193359375Q182.998291015625 74.7987060546875 211.8975830078125 54.69915771484375Q240.796875 34.599609375 281.39599609375 22.39990234375L313.396728515625 13.999755859375Q318.796630859375 12.7998046875 320.8966064453125 11.1998291015625Q322.99658203125 9.599853515625 322.99658203125 6.39990234375Z" transform="translate(1211.0 0)"/>
  </g>
</svg>
